<svg xmlns="http://www.w3.org/2000/svg" viewBox="0 0 16 16"><path d="M10.0654,6.79102l-0.41217,-0.206116c-0.195129,1.15173 -0.438782,2.44183 -0.653259,3.54108v-5.43359c0,-3.04883 -2.65088,-4.50537 -2.76367,-4.56543l-0.236328,-0.126953l-0.236328,0.126953c-0.112793,0.0600586 -2.76367,1.5166 -2.76367,4.56543v5.43359c-0.214478,-1.09924 -0.458069,-2.38934 -0.653259,-3.54108l-0.41217,0.206116c-1.19336,0.597168 -1.93457,1.79639 -1.93457,3.13037v1.646c0,0.276367 0.223633,0.5 0.5,0.5c0,1.10455 1.25,2 1.25,2c0,0 1.25,-0.895447 1.25,-2h0.386841h0.148315c0.295654,2.24963 2.46484,4 2.46484,4c0,0 2.16919,-1.75037 2.46484,-4h0.148315h0.386841c0,1.10455 1.25,2 1.25,2c0,0 1.25,-0.895447 1.25,-2c0.276367,0 0.5,-0.223633 0.5,-0.5v-1.646c0,-1.33398 -0.741211,-2.5332 -1.93457,-3.13037Zm-4.06543,-2.72363c0.552307,0 1,0.447693 1,1c0,0.552246 -0.447693,1 -1,1c-0.552307,0 -1,-0.447754 -1,-1c0,-0.552307 0.447693,-1 1,-1Zm0,10c0,0 -1,-0.895447 -1,-2h2c0,1.10455 -1,2 -1,2Z" transform="translate(2 -.034)"/></svg>